<svg xmlns="http://www.w3.org/2000/svg" viewBox="0 0 148.31 17.54"><defs><style>.cls-1{fill:#fff;}</style></defs><g id="Capa_2" data-name="Capa 2"><g id="Capa_1-2" data-name="Capa 1"><path class="cls-1" d="M0,8.77C0,4,3.67,0,9.4,0a8.63,8.63,0,0,1,5.3,1.7,1.14,1.14,0,0,1,.22,1.82l-.78.93a1.22,1.22,0,0,1-1.85.17A5.66,5.66,0,0,0,9.4,3.86,4.72,4.72,0,0,0,4.47,8.77,4.72,4.72,0,0,0,9.4,13.68a5.71,5.71,0,0,0,2.89-.76,1.22,1.22,0,0,1,1.85.17l.78.93c.53.65.53,1.28-.1,1.75A8.88,8.88,0,0,1,9.4,17.54C3.67,17.54,0,13.51,0,8.77Z"/><path class="cls-1" d="M17.78,16V1.58A1.18,1.18,0,0,1,19.09.27h1.85a1.19,1.19,0,0,1,1.31,1.31V7.31h5.68V1.58A1.18,1.18,0,0,1,29.25.27h1.82a1.18,1.18,0,0,1,1.31,1.31V16a1.18,1.18,0,0,1-1.31,1.31H29.25A1.18,1.18,0,0,1,27.93,16V11H22.25v5a1.19,1.19,0,0,1-1.31,1.31H19.09A1.18,1.18,0,0,1,17.78,16Z"/><path class="cls-1" d="M35.78,16V1.58A1.18,1.18,0,0,1,37.09.27h1.85a1.19,1.19,0,0,1,1.31,1.31V16a1.19,1.19,0,0,1-1.31,1.31H37.09A1.18,1.18,0,0,1,35.78,16Z"/><path class="cls-1" d="M43.62,16V1.58A1.18,1.18,0,0,1,44.94.27h1.84a1.19,1.19,0,0,1,1.31,1.31V7.31h5.69V1.58A1.18,1.18,0,0,1,55.09.27h1.82a1.18,1.18,0,0,1,1.31,1.31V16a1.18,1.18,0,0,1-1.31,1.31H55.09A1.18,1.18,0,0,1,53.78,16V11H48.09v5a1.19,1.19,0,0,1-1.31,1.31H44.94A1.18,1.18,0,0,1,43.62,16Z"/><path class="cls-1" d="M61.4,10.76V1.58A1.18,1.18,0,0,1,62.71.27h1.85a1.18,1.18,0,0,1,1.31,1.31v9.18a2.66,2.66,0,0,0,2.72,2.92,2.69,2.69,0,0,0,2.75-2.92V1.58A1.18,1.18,0,0,1,72.65.27h1.82a1.18,1.18,0,0,1,1.31,1.31v9.18c0,4.4-3.3,6.78-7.19,6.78S61.4,15.16,61.4,10.76Z"/><path class="cls-1" d="M77.26,15.77,82.83,1.29a1.49,1.49,0,0,1,1.53-1h1.89a1.49,1.49,0,0,1,1.51,1l5.68,14.48c.34.89,0,1.5-1,1.5h-2a1.5,1.5,0,0,1-1.5-1l-.75-2H82.37l-.73,2a1.43,1.43,0,0,1-1.49,1H78.28C77.31,17.27,76.9,16.66,77.26,15.77Zm10.11-5L85.3,4.93l-2.16,5.83Z"/><path class="cls-1" d="M98.32,16V10.4l-5.9-8.53c-.61-.9-.22-1.6.85-1.6h2.36a1.71,1.71,0,0,1,1.58.87l3.35,5.47,3.37-5.47a1.69,1.69,0,0,1,1.58-.87h2.34c1.06,0,1.43.7.8,1.6l-5.86,8.45V16a1.18,1.18,0,0,1-1.31,1.31H99.64A1.18,1.18,0,0,1,98.32,16Z"/><path class="cls-1" d="M109,8.77a9.1,9.1,0,0,1,18.19,0,9.1,9.1,0,0,1-18.19,0Zm13.7,0a4.62,4.62,0,1,0-9.23,0,4.62,4.62,0,1,0,9.23,0Z"/><path class="cls-1" d="M129.61,16V1.58A1.18,1.18,0,0,1,130.92.27h1.85a1.19,1.19,0,0,1,1.31,1.31V13.46h6.34a1.18,1.18,0,0,1,1.31,1.31V16a1.18,1.18,0,0,1-1.31,1.31h-9.5A1.18,1.18,0,0,1,129.61,16Z"/><path class="cls-1" d="M143.84,16V1.58A1.18,1.18,0,0,1,145.15.27H147a1.19,1.19,0,0,1,1.31,1.31V16A1.19,1.19,0,0,1,147,17.27h-1.85A1.18,1.18,0,0,1,143.84,16Z"/></g></g></svg>