<svg xmlns="http://www.w3.org/2000/svg" viewBox="0 0 130.32 130.46"><defs><style>.cls-1{fill:#fff;}</style></defs><g id="Capa_2" data-name="Capa 2"><g id="Capa_1-2" data-name="Capa 1"><path class="cls-1" d="M53,66.34C53,59.11,58.58,53,67.33,53a13.06,13.06,0,0,1,8.08,2.6,1.73,1.73,0,0,1,.33,2.78l-1.19,1.4c-.81,1-1.7,1-2.81.26a8.81,8.81,0,0,0-4.41-1.15,7.49,7.49,0,1,0,0,15,8.89,8.89,0,0,0,4.41-1.15c1.11-.74,2-.74,2.81.26l1.19,1.41c.81,1,.81,2-.15,2.67a13.46,13.46,0,0,1-8.26,2.7C58.58,79.72,53,73.57,53,66.34Z"/><path class="cls-1" d="M87,111.85C87.05,95,71.13,83.67,56.92,90.07a23.8,23.8,0,0,0-11.34,32.12q2.33,4.69,6.93,3c3.09-1.17,5.26-.36,7.57,1.88,4.78,4.62,5.75,4.55,10.69-.16,1.83-1.75,3.54-2.91,6.16-1.89,4.71,1.83,7.2-.37,8.55-4.76A25.47,25.47,0,0,0,87,111.85Zm-33,8c-2.88,1.07-4.57.16-5.31-2.57a32.91,32.91,0,0,1-.74-4.63c0-9.13,4-15.71,10.53-18.52,3.53-1.53,5.65-.69,6.78,3.09C67.82,105.8,62.35,116.8,54,119.88ZM65.48,125a3.38,3.38,0,0,1-3.58-3.37c-.17-2,1.29-2.86,3.06-3.37,1.93.35,3.5,1.31,3.55,3.43A3.1,3.1,0,0,1,65.48,125Zm16.88-13.09c-.23,2.93.45,6.52-2.57,8.11s-5.57-1.09-8-2.73c-2.93-2-3.93-4.65-2.63-8.2s1-7.51.77-11.33c-.07-1.12-.46-2.44.86-3.12s2.23.19,3.22.77c5.22,3,8.3,9,8.33,16C82.36,111.53,82.37,111.7,82.36,111.86Z"/><path class="cls-1" d="M85,8.93C83.45,5.4,81.1,4,77.51,5.38c-3.18,1.23-5.26,0-7.49-2.17C65.7-1.09,64.49-1,60.1,3.1c-1.85,1.73-3.49,3.67-6.47,2.47-4.93-2-7.49.28-8.88,4.9a26.8,26.8,0,0,0-1.44,8.38c0,14.7,13.53,26.36,26.13,23A23.82,23.82,0,0,0,85,8.93Zm-23.56,11a30.13,30.13,0,0,0-1.13,12.8c.11,1.11.47,2.43-.87,3.11s-2.26-.15-3.21-.8c-5.61-3.86-8.62-9.08-8.19-17.11.33-2.1-.79-6.57,2.85-7.73s6.62,2.27,9.32,4.71A4.46,4.46,0,0,1,61.47,19.92Zm.3-11a3.06,3.06,0,0,1,3.29-3.48c2,.08,3.09,1.62,3.49,3.52-.27,1.92-1.34,3.21-3.17,3.27A3.36,3.36,0,0,1,61.77,8.94Zm10,27.38c-3.15,1.66-5.34.94-6.57-2.59-3.1-8.84,3-20.83,11.92-23.52,2.21-.67,3.54,0,4.32,2a21.7,21.7,0,0,1,.92,7.39C82.43,27.45,78.51,32.79,71.79,36.32Z"/><path class="cls-1" d="M41.28,59.28c-3.43-9.9-11.53-15.71-22.76-15.76A23.83,23.83,0,0,0,8.15,45.71C5.3,47,3.81,49.05,5.05,52.06c1.46,3.54.4,6.09-2.31,8.34-3.63,3-3.64,6.15-.13,9.19,2.81,2.44,4,5.06,2.44,8.78-1,2.41-.26,4.41,2.2,5.86,7.47,4.41,19.69,3.32,26.85-2.54C40.8,76.21,43.85,66.7,41.28,59.28ZM13.67,48.41c7.45-1.52,14.27-.52,19.49,5.64,1.33,1.57,3.73,3.17,2.52,5.46s-3.64.43-5.29.65a28.21,28.21,0,0,0-9.11.86c-5.13,1.13-11.14-3.55-11.39-8.79C9.76,49.54,11.72,48.81,13.67,48.41Zm-5,19.81A3.19,3.19,0,0,1,5.6,64.93c.05-1.86,1.38-2.84,3.23-3.2,1.86.52,3.37,1.63,3.23,3.68A3,3,0,0,1,8.65,68.22ZM36,72.46c-3.6,6.78-9.44,10-17.28,10.17-2.88-.33-6.76.26-8.33-2.87s1.32-5.94,3.31-8.25c5-5.85,11.3-8.64,19.1-6.5C37.1,66.2,38.1,68.44,36,72.46Z"/><path class="cls-1" d="M127.67,60.86c-2.84-2.42-3.92-5.06-2.39-8.76,1.1-2.65,0-4.69-2.64-6.11-8-4.21-20-3-26.78,3s-9.45,14.88-6.72,22.49c3.68,10.25,11,15.43,22.52,15.46a23.79,23.79,0,0,0,10.57-2.22c2.89-1.27,4.24-3.35,3-6.35-1.41-3.51-.4-6.06,2.34-8.32C131.22,67,131.21,63.88,127.67,60.86Zm-30.94-6.3a18.79,18.79,0,0,1,20.23-6c2.83.9,4.27,2.29,2.89,5.49A19.35,19.35,0,0,1,101.4,65.9c-2.49-.3-6,.11-7.55-2.94C92.19,59.62,94.77,57,96.73,54.56Zm21.29,27c-2.24.6-4.54.93-5.34,1.09C104,82.78,98.77,79.45,95,73.56c-.6-1-1.46-2-.6-3.2.69-1,1.83-.6,2.79-.43,4.36.75,8.59.12,12.86-.82,4.55-1,10.8,4.94,10.41,9.63A3,3,0,0,1,118,81.55Zm3.27-12.77a3.31,3.31,0,0,1-3.18-3.68,3.07,3.07,0,0,1,3.34-2.93,3.57,3.57,0,0,1,3.6,3.37C124.44,67.39,123.35,68.93,121.29,68.78Z"/><path class="cls-1" d="M95.34,89.28c-3.53.54-5.22,2.27-5.36,5.93-.38,9.84,7.8,18.17,18.8,18.5,3-.23,6.87.52,7.33-4.72C117.08,98,106.18,87.62,95.34,89.28ZM104,108.4c-2.46,0-8.7-5.38-9.07-7.77-.15-.93,0-1.61,1-1.78s9.51,7.24,9.59,8.27S104.84,108.4,104,108.4ZM99.87,94.87c6.73.67,9.41,3.18,10.48,9.72A49.81,49.81,0,0,1,99.87,94.87Z"/><path class="cls-1" d="M21.31,16.76c-2.78.23-6.47-.49-7.07,4.38-1.36,11,9.66,21.68,20.67,20.1,3.84-.55,5.37-2.54,5.42-6.33C40.46,25.13,32.33,17.11,21.31,16.76ZM19.87,26c4.54,3.37,8.14,5.9,11.05,9.92C24.84,35.67,21.74,33.05,19.87,26Zm3.31-4c7.39.9,10.62,3.82,11.85,10.58A62,62,0,0,1,23.18,21.93Z"/><path class="cls-1" d="M109.06,16.74C98.27,16.79,89.9,24.85,90,34.86c0,4.14,2,6,5.92,6.39,9.59,1,18.75-6.56,20.09-16.69C116.8,18.52,115.2,16.71,109.06,16.74ZM95.71,31.27c-1.82-1.81.91-4.05,2.38-5.7a12.52,12.52,0,0,1,5.75-3.72c.93-.28,2-.5,2.3,1.26a21.51,21.51,0,0,1-1.44,1.71,46.37,46.37,0,0,1-4,3.7C99.12,29.74,97.33,32.89,95.71,31.27Zm3.9,4.62a51.51,51.51,0,0,1,10.51-9.8C109.54,32,106.42,35.08,99.61,35.89Z"/><path class="cls-1" d="M33.35,89.11c-9.89-.12-17.74,6.88-19,17-.75,5.85.8,7.6,6.71,7.61,10.57,0,19.13-7.82,19.21-17.63C40.29,91,38.5,89.17,33.35,89.11ZM20.08,103.82c.52-5,3.59-7.26,7.07-9.2,1.14-.28,2.64-1.39,3.23.35.49,1.45-1.27,2-2.2,2.76C25.56,99.52,23.79,102.5,20.08,103.82Zm5.86,4.9c-1.6.07-2.49-.73-1.28-2A99.48,99.48,0,0,1,33.07,99c1.19-1,2.17-.33,2.13.55C34.94,103.08,28.88,108.6,25.94,108.72Z"/><path class="cls-1" d="M28.18,97.73c.72-1.39,1-2.62-1-3.11,1.34-.76,3.24-2.42,4.12-.7C32.45,96.22,29.76,96.84,28.18,97.73Z"/></g></g></svg>